<svg width="3407" height="1855" viewBox="0 0 3407 1855" fill="none" xmlns="http://www.w3.org/2000/svg">
<g opacity="0.7">
<g filter="url(#filter0_f_134_7417)">
<ellipse cx="1523.75" cy="910.856" rx="919.063" ry="205.479" transform="rotate(-12.7084 1523.75 910.856)" fill="#7300FF" fill-opacity="0.96"/>
</g>
<g filter="url(#filter1_f_134_7417)">
<ellipse cx="2295.32" cy="1045.69" rx="691.522" ry="241.667" transform="rotate(-22.1653 2295.32 1045.69)" fill="#5891FC" fill-opacity="0.77"/>
</g>
<g opacity="0.7">
<mask id="mask0_134_7417" style="mask-type:alpha" maskUnits="userSpaceOnUse" x="1000" y="471" width="1477" height="1124">
<ellipse cx="1738.35" cy="1032.94" rx="738.293" ry="561.943" fill="#D9D9D9"/>
</mask>
<g mask="url(#mask0_134_7417)">
<path d="M934.708 1894V294.209M965.474 1894V294.209M996.239 1894V294.209M1027 1894V294.209M1057.77 1894V294.209M1088.53 1894V294.209M1119.3 1894V294.209M1150.06 1894V294.209M1180.83 1894V294.209M1211.6 1894V294.209M1242.36 1894V294.209M1273.13 1894V294.209M1303.89 1894V294.209M1334.66 1894V294.209M1365.42 1894V294.209M1396.19 1894V294.209M1426.95 1894V294.209M1457.72 1894V294.209M1488.48 1894V294.209M1519.25 1894V294.209M1550.01 1894V294.209M1580.78 1894V294.209M1611.54 1894V294.209M1642.31 1894V294.209M1673.07 1894V294.209M1703.84 1894V294.209M1734.6 1894V294.209M934.5 1094.31L2534.29 1094.31M934.5 1125.08L2534.29 1125.08M934.5 1155.84L2534.29 1155.84M934.5 1186.61L2534.29 1186.61M934.5 1217.37H2534.29M934.5 1248.14H2534.29M934.5 1278.9H2534.29M934.5 1309.67H2534.29M934.5 1340.43L2534.29 1340.43M934.5 1371.2H2534.29M934.5 1401.97H2534.29M934.5 1432.73H2534.29M934.5 1463.5H2534.29M934.5 1494.26H2534.29M934.5 1525.03H2534.29M934.5 1555.79L2534.29 1555.79M934.5 1586.56L2534.29 1586.56M934.5 1617.32L2534.29 1617.32M934.5 1648.09H2534.29M934.5 1678.85H2534.29M934.5 1709.62H2534.29M934.5 1740.38H2534.29M934.5 1771.15L2534.29 1771.15M934.5 1801.91L2534.29 1801.91M934.5 1832.68L2534.29 1832.68M934.5 1863.44H2534.29M934.5 1894.21H2534.29M934.5 294.417L2534.29 294.417M934.5 325.182L2534.29 325.183M934.5 355.948L2534.29 355.948M934.5 386.713L2534.29 386.713M934.5 417.478L2534.29 417.478M934.5 448.243L2534.29 448.243M934.5 479.009L2534.29 479.009M934.5 509.774L2534.29 509.774M934.5 540.539L2534.29 540.539M934.5 571.304L2534.29 571.304M934.5 602.069L2534.29 602.069M934.5 632.835L2534.29 632.835M934.5 663.6L2534.29 663.6M934.5 694.365L2534.29 694.365M934.5 725.13L2534.29 725.13M934.5 755.896L2534.29 755.896M934.5 786.661L2534.29 786.661M934.5 817.426L2534.29 817.426M934.5 848.191L2534.29 848.191M934.5 878.956L2534.29 878.956M934.5 909.722L2534.29 909.722M934.5 940.487L2534.29 940.487M934.5 971.252L2534.29 971.252M934.5 1002.02L2534.29 1002.02M934.5 1032.78L2534.29 1032.78M934.5 1063.55L2534.29 1063.55M1765.37 1894V294.209M1796.13 1894V294.209M1826.9 1894V294.209M1857.66 1894V294.209M1888.43 1894V294.209M1919.2 1894V294.209M1949.96 1894V294.209M1980.73 1894V294.209M2011.49 1894V294.209M2042.26 1894V294.209M2073.02 1894V294.209M2103.79 1894V294.209M2134.55 1894V294.209M2165.32 1894V294.209M2196.08 1894V294.209M2226.85 1894V294.209M2257.61 1894V294.209M2288.38 1894V294.209M2319.14 1894V294.209M2349.91 1894V294.209M2380.67 1894V294.209M2411.44 1894V294.209M2442.2 1894V294.209M2472.97 1894V294.209M2503.73 1894V294.209M2534.5 1894V294.209" stroke="white" stroke-opacity="0.7" stroke-width="0.833333"/>
</g>
</g>
</g>
<defs>
<filter id="filter0_f_134_7417" x="0.876343" y="0.985229" width="3045.75" height="1819.74" filterUnits="userSpaceOnUse" color-interpolation-filters="sRGB">
<feFlood flood-opacity="0" result="BackgroundImageFix"/>
<feBlend mode="normal" in="SourceGraphic" in2="BackgroundImageFix" result="shape"/>
<feGaussianBlur stdDeviation="312.583" result="effect1_foregroundBlur_134_7417"/>
</filter>
<filter id="filter1_f_134_7417" x="1183.69" y="237.273" width="2223.25" height="1616.82" filterUnits="userSpaceOnUse" color-interpolation-filters="sRGB">
<feFlood flood-opacity="0" result="BackgroundImageFix"/>
<feBlend mode="normal" in="SourceGraphic" in2="BackgroundImageFix" result="shape"/>
<feGaussianBlur stdDeviation="232.333" result="effect1_foregroundBlur_134_7417"/>
</filter>
</defs>
</svg>
